REM COMMENT Generated by: Mymusic v. 1.2 beta TEMPLATE: Logitech SqueezeServer Scan::PlayList::CUE v. 7.5.0
REM GENRE classica
REM DATE 1981
REM DISC 1
REM DISCC 2
REM DISCID XzPS7vW.HPHsYemQh0HBUGr8vuU-
CDTEXTFILE some text here
CATALOG 1234567890123
REM LYRICS some great lyrics here
REM VATTELAPESCALBVUM "vattelapesca con """
REM VATTELAPESCALBVUMA-3 vattelapesca senza ""
REM VATTELAPESCA2_1 vattelapesca ancora
PERFORMER "I Solisti Veneti"
SONGWRITER "Tomaso Giovanni Albinoni"
TITLE "12 Violin Concertos, Op. 10 (I Solisti Veneti feat. conductor: Claudio Scimone) (disc 1)"
FILE "12 Concertos Op. 10 (CD 1) CD1.wav" WAVE
  TRACK 01 AUDIO
    TITLE "Violin Concerto No. 1 in B-flat major: I. Allegro"
    REM COMPOSER "Tomaso Giovanni Albinoni"
    REM CONDUCTOR "Claudio Scimone"
    REM BAND "I Solisti Veneti"
    PERFORMER "Ciccio"
    SONGWRITER "Pluto"
    REM COMMENT track 1 comment
    REM GENRE classica;musica da camera
    REM DATE 1980
    FLAGS DCP 4CH PRE SCMS DATA
    PREGAP 00:00:01
    REM DISC 1
    REM LYRICS "some other great lyrics here"
    REM VATTELAPESCA "vattelapesca con """
    REM VATTELAPESCA2 vattelapesca senza ""
    REM VATTELAPESCA2.1 vattelapesca ancora
    INDEX 00 00:00:00
    INDEX 01 01:00:00
    INDEX 02 01:30:00
    POSTGAP 01:30:02
  TRACK 02 AUDIO
    TITLE "Violin Concerto No. 1 in B-flat major: II. Adagio"
    REM COMPOSER "Tomaso Giovanni Albinoni"
    REM CONDUCTOR "Claudio Scimone"
    REM BAND "I Solisti Veneti"
    INDEX 01 02:09:30
  TRACK 03 AUDIO
    TITLE "Violin Concerto No. 1 in B-flat major: III. Allegro"
    REM COMPOSER "Tomaso Giovanni Albinoni"
    REM CONDUCTOR "Claudio Scimone"
    REM BAND "I Solisti Veneti"
    INDEX 01 05:00:23
  TRACK 04 AUDIO
    TITLE "Violin Concerto No. 2 in G minor: I. Allegro"
    REM COMPOSER "Tomaso Giovanni Albinoni"
    REM CONDUCTOR "Claudio Scimone"
    REM BAND "I Solisti Veneti"
    INDEX 01 06:27:65
  TRACK 05 AUDIO
    TITLE "Violin Concerto No. 2 in G minor: II. Andante"
    REM COMPOSER "Tomaso Giovanni Albinoni"
    REM CONDUCTOR "Claudio Scimone"
    REM BAND "I Solisti Veneti"
    INDEX 01 10:00:40
  TRACK 06 AUDIO
    TITLE "Violin Concerto No. 2 in G minor: III. Allegro"
    REM COMPOSER "Tomaso Giovanni Albinoni"
    REM CONDUCTOR "Claudio Scimone"
    REM BAND "I Solisti Veneti"
    INDEX 01 12:07:68
  TRACK 07 AUDIO
    TITLE "Violin Concerto No. 3 in C major: I. Allegro"
    REM COMPOSER "Tomaso Giovanni Albinoni"
    REM CONDUCTOR "Claudio Scimone"
    REM BAND "I Solisti Veneti;Piero Toso"
    INDEX 01 15:24:60
  TRACK 08 AUDIO
    TITLE "Violin Concerto No. 3 in C major: II. Adagio"
    REM COMPOSER "Tomaso Giovanni Albinoni"
    REM CONDUCTOR "Claudio Scimone"
    REM BAND "I Solisti Veneti;Piero Toso"
    INDEX 01 19:45:03
  TRACK 09 AUDIO
    TITLE "Violin Concerto No. 3 in C major: III. Allegro"
    REM COMPOSER "Tomaso Giovanni Albinoni"
    REM CONDUCTOR "Claudio Scimone"
    REM BAND "I Solisti Veneti;Piero Toso"
    INDEX 01 23:17:13
  TRACK 10 AUDIO
    TITLE "Violin Concerto No. 4 in G major: I. Allegro"
    REM COMPOSER "Tomaso Giovanni Albinoni"
    REM CONDUCTOR "Claudio Scimone"
    REM BAND "I Solisti Veneti;Piero Toso"
    INDEX 01 25:47:58
  TRACK 11 AUDIO
    TITLE "Violin Concerto No. 4 in G major: II. Andante"
    REM COMPOSER "Tomaso Giovanni Albinoni"
    REM CONDUCTOR "Claudio Scimone"
    REM BAND "I Solisti Veneti;Piero Toso"
    INDEX 01 30:13:10
  TRACK 12 AUDIO
    TITLE "Violin Concerto No. 4 in G major: III. Allegro"
    REM COMPOSER "Tomaso Giovanni Albinoni"
    REM CONDUCTOR "Claudio Scimone"
    REM BAND "I Solisti Veneti;Piero Toso"
    INDEX 01 32:52:43
  TRACK 13 AUDIO
    TITLE "Violin Concerto No. 5 in A major: I. Allegro"
    REM COMPOSER "Tomaso Giovanni Albinoni"
    REM CONDUCTOR "Claudio Scimone"
    REM BAND "I Solisti Veneti;Giuliano Carmignola"
    INDEX 01 34:21:60
  TRACK 14 AUDIO
    TITLE "Violin Concerto No. 5 in A major: II. Andante"
    REM COMPOSER "Tomaso Giovanni Albinoni"
    REM CONDUCTOR "Claudio Scimone"
    REM BAND "I Solisti Veneti;Giuliano Carmignola"
    INDEX 01 37:20:58
  TRACK 15 AUDIO
    TITLE "Violin Concerto No. 5 in A major: III. Allegro"
    REM COMPOSER "Tomaso Giovanni Albinoni"
    REM CONDUCTOR "Claudio Scimone"
    REM BAND "I Solisti Veneti;Giuliano Carmignola"
    INDEX 01 40:15:33
  TRACK 16 AUDIO
    TITLE "Violin Concerto No. 6 in D major: I. Allegro"
    REM COMPOSER "Tomaso Giovanni Albinoni"
    REM CONDUCTOR "Claudio Scimone"
    REM BAND "I Solisti Veneti;Piero Toso"
    INDEX 01 43:16:10
  TRACK 17 AUDIO
    TITLE "Violin Concerto No. 6 in D major: II. Larghetto"
    REM COMPOSER "Tomaso Giovanni Albinoni"
    REM CONDUCTOR "Claudio Scimone"
    REM BAND "I Solisti Veneti;Piero Toso"
    INDEX 01 47:47:60
  TRACK 18 AUDIO
    TITLE "Violin Concerto No. 6 in D major: III. Allegro"
    REM COMPOSER "Tomaso Giovanni Albinoni"
    REM CONDUCTOR "Claudio Scimone"
    REM BAND "I Solisti Veneti;Piero Toso"
    INDEX 01 49:44:50